<?xml version="1.0" standalone="no"?><!DOCTYPE svg PUBLIC "-//W3C//DTD SVG 1.1//EN" "http://www.w3.org/Graphics/SVG/1.1/DTD/svg11.dtd"><svg t="1678516260080" class="icon" viewBox="0 0 1024 1024" version="1.1" xmlns="http://www.w3.org/2000/svg" p-id="1680" xmlns:xlink="http://www.w3.org/1999/xlink" width="200" height="200"><path d="M708.2496 170.6496a25.6 25.6 0 1 0-51.2 0v42.7008a25.6 25.6 0 0 0 51.2 0v-42.7008z m-25.6 123.7504a25.6 25.6 0 0 1 25.6 25.6V486.4h145.1008a25.6 25.6 0 0 1 25.6 25.6v315.7504h59.6992a25.6 25.6 0 1 1 0 51.2H85.3504a25.6 25.6 0 0 1 0-51.2h59.6992v-101.888a26.112 26.112 0 0 1 0-1.024V512a25.6 25.6 0 0 1 25.6-25.6h145.1008V320a25.6 25.6 0 0 1 51.2 0V486.4H486.4V320a25.6 25.6 0 0 1 51.2 0V486.4h119.4496V320a25.6 25.6 0 0 1 25.6-25.6z m145.1008 533.3504v-86.5792L768 711.2704l-73.8816 36.9664a25.6 25.6 0 0 1-22.8864 0l-73.8816-36.9664-73.8816 36.9664a25.6 25.6 0 0 1-22.9376 0l-73.8816-36.9664-73.8816 36.9664a25.6 25.6 0 0 1-22.8864 0L256 711.2704l-59.7504 29.9008v86.528h631.5008z m0-143.872V537.6H196.2496v146.3296l48.2816-24.1664a25.6 25.6 0 0 1 22.9376 0l73.8816 36.9664 73.8816-36.9664a25.6 25.6 0 0 1 22.8864 0l73.8816 36.9664 73.8816-36.9664a25.6 25.6 0 0 1 22.8864 0l73.8816 36.9664 73.8816-36.9664a25.6 25.6 0 0 1 22.9376 0l48.2816 24.1664zM512 145.1008a25.6 25.6 0 0 1 25.6 25.6v42.7008a25.6 25.6 0 0 1-51.2 0v-42.7008a25.6 25.6 0 0 1 25.6-25.6z m-145.0496 25.6a25.6 25.6 0 0 0-51.2 0v42.7008a25.6 25.6 0 0 0 51.2 0v-42.7008z" fill="#d4237a" p-id="1681"></path></svg>