<?xml version="1.0" standalone="no"?><!DOCTYPE svg PUBLIC "-//W3C//DTD SVG 1.1//EN" "http://www.w3.org/Graphics/SVG/1.1/DTD/svg11.dtd"><svg t="1678516047031" class="icon" viewBox="0 0 1024 1024" version="1.1" xmlns="http://www.w3.org/2000/svg" p-id="895" xmlns:xlink="http://www.w3.org/1999/xlink" width="200" height="200"><path d="M59.7504 192a25.6 25.6 0 0 1 25.6-25.6h853.2992a25.6 25.6 0 0 1 25.6 25.6v220.0064a25.6 25.6 0 0 1-16.9984 24.1152 91.6992 91.6992 0 0 0-60.5696 86.528c0 40.0384 25.344 73.984 60.5696 86.528a25.6 25.6 0 0 1 16.9984 24.1664v220.0064a25.6 25.6 0 0 1-25.6 25.6H85.3504a25.6 25.6 0 0 1-25.6-25.6V633.344a25.6 25.6 0 0 1 16.9984-24.1152 91.6992 91.6992 0 0 0 60.5696-86.528c0-40.0896-25.344-74.0352-60.5696-86.528a25.6 25.6 0 0 1-16.9984-24.1664V192z m51.2 25.6v177.664a143.0016 143.0016 0 0 1 77.568 127.3856 143.0528 143.0528 0 0 1-77.568 127.4368v177.664h802.0992v-177.664a143.0528 143.0528 0 0 1-77.568-127.4368c0-55.552 31.488-103.7312 77.568-127.3856V217.6H110.9504z m276.2752 105.6256a25.6 25.6 0 0 1 36.1984 0L512 411.8016l88.576-88.576a25.6 25.6 0 1 1 36.1984 36.1984L552.448 443.7504h87.552a25.6 25.6 0 0 1 0 51.2h-102.4v80.384h102.4a25.6 25.6 0 0 1 0 51.2h-102.4v98.816a25.6 25.6 0 0 1-51.2 0v-98.816h-102.4a25.6 25.6 0 1 1 0-51.2h102.4v-80.384h-102.4a25.6 25.6 0 0 1 0-51.2h87.552L387.2256 359.424a25.6 25.6 0 0 1 0-36.1984z" fill="#4A4A4A" p-id="896"></path></svg>