<?xml version="1.0" standalone="no"?><!DOCTYPE svg PUBLIC "-//W3C//DTD SVG 1.1//EN" "http://www.w3.org/Graphics/SVG/1.1/DTD/svg11.dtd"><svg t="1678516095912" class="icon" viewBox="0 0 1024 1024" version="1.1" xmlns="http://www.w3.org/2000/svg" p-id="1490" xmlns:xlink="http://www.w3.org/1999/xlink" width="200" height="200"><path d="M128 196.2496a17.0496 17.0496 0 0 0-17.0496 17.1008v597.2992c0 9.4208 7.6288 17.1008 17.0496 17.1008h768c9.4208 0 17.0496-7.68 17.0496-17.1008V213.3504a17.0496 17.0496 0 0 0-17.0496-17.1008h-768z m-68.2496 17.1008c0-37.7344 30.5664-68.3008 68.2496-68.3008h768c37.6832 0 68.2496 30.5664 68.2496 68.3008v597.2992c0 37.7344-30.5664 68.3008-68.2496 68.3008h-768a68.2496 68.2496 0 0 1-68.2496-68.3008V213.3504z m192 234.6496a110.9504 110.9504 0 1 1 187.5456 80.1792 153.5488 153.5488 0 0 1 76.9536 133.12 25.6 25.6 0 0 1-51.2 0 102.4 102.4 0 1 0-204.8 0 25.6 25.6 0 0 1-51.2 0c0-56.8832 30.976-106.5472 76.9536-133.12a110.592 110.592 0 0 1-34.304-80.1792z m110.8992-59.7504a59.7504 59.7504 0 1 0 0 119.5008 59.7504 59.7504 0 0 0 0-119.5008z m209.1008 38.4a25.6 25.6 0 0 1 25.6-25.6H768a25.6 25.6 0 0 1 0 51.2h-170.6496a25.6 25.6 0 0 1-25.6-25.6z m68.2496 145.1008a25.6 25.6 0 1 0 0 51.2H768a25.6 25.6 0 0 0 0-51.2h-128z" fill="#4A4A4A" p-id="1491"></path></svg>